<svg xmlns="http://www.w3.org/2000/svg" width="146" height="24" viewBox="0 0 146 24">
    <g fill="#FFF" fill-rule="evenodd">
        <path d="M104.013 11.077c1-2.162 2.866-5.64 4.333-7.881.64-.98 1.28-2.082 2.24-2.766.413-.296.92-.497 1.427-.39.28.067.533.202.76.39.68.55-.134 1.584-.454 2.134-.52.86-1.12 1.665-1.653 2.525-1.32 2.148-2.613 4.336-3.747 6.632a49.367 49.367 0 0 0-1.706 3.84c-.2.51-1.453 3.25-1.014 3.505.52.308 1.32-.725 1.654-1.02.28-.242.88-.78 1.28-.632.906.35-.187 1.947-.467 2.39-.773 1.262-1.84 2.417-3.333 2.47-1.253.04-2.293-.94-2.427-2.309-.08-.846.067-1.718.267-2.55.52-2.27 1.707-4.297 2.84-6.338zm-4.133 6.042c0 .16-.04.335-.12.51-.374.832-1.507 1.208-2.214 1.678-1.186.779-2.413 1.518-3.693 2.135-2.187 1.06-4.173 2.242-7.613.685-2.614-1.195-3.08-4.458-1.827-7.868C85.48 11.332 87.546 8.768 90 6.552c2.466-2.229 5.16-4.337 7.12-4.551.706-.068 1.466.026 2.04.537 1.12 1.007.973 2.94.373 4.216-.36.778-.787 1.288-1.6 1.41-.693.107-1.533-.135-1.387-1.088.08-.537.68-1.571.32-2.081-.493-.712-2.32.926-2.733 1.235-.787.577-1.507 1.249-2.213 1.933-1.24 1.182-2.254 2.712-3.107 4.243-.987 1.772-1.893 3.827-1.92 5.948 0 .658.027 1.423.373 2 .947 1.598 3.334.444 4.574-.013a26.053 26.053 0 0 0 3.52-1.611c1.173-.645 2.253-1.423 3.4-2.108.666-.403 1.12-.054 1.12.497zm14.293-13.574c.546 1.544 1.173 3.034 2.933 3.504 0-1.423-.987-4.23-2.933-3.504zm-.16 8.727l-.014.013c.027.31-.04.645-.186 1.048a43.63 43.63 0 0 1-1.107 2.86c-.773 1.812-1.653 3.584-2.533 5.357-.947.067-1.24-.457-1.587-.927.333-1.84.84-3.652 1.467-5.424.293-.833.546-1.665.88-2.484.213-.524.36-1.115.72-1.558.48-.577 1.2-.376 1.706.054.427.35.614.685.654 1.06zm9.24 3.853c-.054.08-.094.161-.107.175-.213.322-.493.604-.773.86-1 .925-1.84 2.013-2.894 2.886-.76.63-1.693 1.034-2.653.658-1.213-.47-2.267-2.135-1.92-4.404.44-2.914 2.733-7.063 4.213-8.298 1.094-.913 2.44-.86 3.507.054.68.577 1.573 1.692 1.587 2.631 0 .256-.04.403-.134.484-.253.228-.8-.161-1.106-.416-.387-.336-.814-.739-1.36-.618-.36.08-.774.55-1.04.792a8.7 8.7 0 0 0-1.107 1.222c-.693.913-1.213 1.947-1.613 3.02-.2.525-1.387 2.941-.174 3.022.387.027.734-.188 1.08-.309.4-.148.774-.309 1.187-.47a14.773 14.773 0 0 0 1.8-.873c.48-.282 1.067-.684 1.693-.832.067-.013-.066.242-.173.416h-.013zm13.333-6.82l.053-.014c.214.255.374.645.12.9-.266.255-1 .215-1.32.443-.36.255-.72.523-1.066.779-.707.51-1.4 1.047-2.067 1.61-1.36 1.169-2.333 2.632-3.16 4.203-.453.86-.787 1.786-1.013 2.726.013-.067 2.453-.752 2.733-.886.84-.403 1.64-.873 2.44-1.356.453-.269 1.24-1.075 1.733-.699.427.31.427.672.227 1.02-.467.78-1.973 1.531-2.413 1.84-1.267.9-2.8 1.92-4.48 1.477-.88-.242-1.174-1.007-1.934-1.544l.387-1.625c-.253.806-.44 1.639-.533 2.498-.067.577-.147 2.108-1.054 1.517-.546-.35-.826-.819-.946-1.463-.147-.739-.08-1.49 0-2.23.04-.416.106-.832.146-1.248.28-2.47 1.48-4.9 2.334-7.223 1.373-2.619 2.48-5.64 4.266-8.123 1.04-.323 2.16.805 2.094 1.651-.094 1.141-1.16 2.35-1.747 3.263-.427.658-.827 1.342-1.253 2-.374.578-.52 1.168-.854 1.773-.52.953-.946 2.336-1.293 3.41 1.187-1.168 2.92-2.444 4.107-3.531.506-.457 1-.913 1.586-1.262.494-.296 1.4-.752 2-.591.307.08.707.443.907.685zm1.2 3.477c.053-.483.187-.967.307-1.383.133-.456.293-.9.493-1.316.373-.765.867-1.477 1.507-2.054a6.945 6.945 0 0 1 2.093-1.302c.667-.269 1.933-.82 2.653-.564.36.134 1.574 1.087 1.107 1.598-.48.537-.853.362-1.413.604-1.64.711-5.254 3.168-4.614 5.787.027.107.174.349.254.43 1.146 1.167 5.626 2.403 3.533 4.913-.88 1.061-2.347 1.598-3.707 2.256-.586.282-1.28.631-1.986.98-.734.376-2.107 1.423-2.88.59-.627-.67.586-1.248 1.04-1.53.64-.416 1.293-.805 1.92-1.235 1.253-.846 2.453-1.84 3.266-3.142.107-.16-2.933-2.376-3.213-2.78-.373-.536-.427-1.207-.347-1.865l-.013.013z"/>
        <path fill-rule="nonzero" d="M15.347 17.83a6.72 6.72 0 0 1-4.254 1.504c-3.773 0-6.72-3.034-6.72-6.901s2.934-6.901 6.72-6.901c1.56 0 3.027.523 4.254 1.503l.053.04 2.92-2.94-.067-.067c-2-1.732-4.533-2.698-7.16-2.698C4.973 1.37 0 6.324 0 12.406s4.973 11.037 11.093 11.037c2.627 0 5.16-.954 7.16-2.686l.067-.067-2.92-2.927-.053.04v.027zm6.92 5.022h4.2V1.987h-4.2v20.865zm20.72-7.532c-.16-.269-7.32-13.373-7.32-13.373h-4.094v20.865h4.173v-12.46c.32.55 7.227 12.634 7.227 12.634s6.88-12.084 7.187-12.62v12.46h4.186V1.96h-4.093s-7.133 13.091-7.28 13.373l.013-.013zM71.6 12.164a4.92 4.92 0 0 0 2.426-4.27c0-3.638-2.466-5.893-6.426-5.893h-8.334v20.864h8.68c3.934 0 6.374-2.309 6.374-6.042 0-2.806-1.627-4.095-2.72-4.645v-.014zm-8.16-6.39h3.84c1.613 0 2.573.859 2.573 2.295 0 1.437-.96 2.296-2.573 2.296h-3.84V5.773zm4.093 13.292H63.44v-4.901h4.093c1.907 0 2.6 1.262 2.6 2.444 0 1.195-.68 2.47-2.6 2.47v-.013z"/>
    </g>
</svg>
